<svg id="Layer_1" xmlns="http://www.w3.org/2000/svg" viewBox="0 0 231 56"><style>.st0{fill-rule:evenodd;clip-rule:evenodd;}</style><path class="st0" d="M89.8 24.9h-3.7l-.4 1c-.1.3-.2.6-.2.8 0 .3.1.5.4.6.1.1.5.1 1 .2v.3h-3.4v-.3c.4-.1.7-.2.9-.5.2-.3.5-.8.9-1.6l3.7-8.3h.1l3.7 8.5c.4.8.6 1.3.9 1.5.2.2.4.2.7.3v.3h-5v-.3h.2c.4 0 .7-.1.8-.2.1-.1.2-.2.2-.4v-.3s-.1-.2-.2-.6l-.6-1zm-.2-.6L88 20.8l-1.6 3.6h3.2v-.1z"/><path d="M100.8 20.7v5.6c0 .5.1.9.2 1 .1.1.3.2.6.3v.3h-2.9v-1c-.3.4-.7.7-1 .9-.4.2-.8.2-1.2.2-.4 0-.8-.1-1.1-.4-.3-.3-.5-.5-.6-.9-.1-.3-.2-.9-.2-1.7v-2.8c0-.5 0-.9-.2-1-.1-.1-.3-.2-.6-.3v-.3h2.9v4.9c0 .5 0 .8.1 1 .1.1.1.3.2.3.1.1.2.1.4.1s.3 0 .5-.1.4-.4.7-.8v-3.8c0-.5 0-.9-.2-1-.1-.1-.3-.2-.6-.3v-.3h3v.1zM106.6 20.5l.1 2.4h-.3c-.3-.7-.6-1.2-1-1.5-.3-.3-.7-.4-1-.4-.2 0-.4.1-.5.2-.1.1-.2.3-.2.5 0 .1 0 .3.2.4.2.2.6.6 1.4 1.1.7.5 1.2.9 1.5 1.3.2.3.4.7.4 1.2 0 .4-.1.8-.3 1.2-.2.4-.5.7-.8.9-.4.2-.8.3-1.2.3-.3 0-.8-.1-1.4-.3-.2-.1-.3-.1-.3-.1-.2 0-.3.1-.4.4h-.3l-.1-2.6h.3c.2.7.5 1.2.9 1.5.4.3.8.5 1.1.5.2 0 .4-.1.6-.2.2-.2.2-.3.2-.6 0-.2-.1-.5-.2-.6-.2-.2-.5-.4-1-.8-.8-.5-1.3-1-1.5-1.2-.3-.4-.5-.9-.5-1.4 0-.5.2-1 .6-1.5.4-.4.9-.7 1.7-.7.4 0 .8.1 1.1.3.1.1.3.1.3.1.1 0 .2 0 .2-.1.1 0 .1-.2.3-.3h.1zM110.3 18.1v2.6h1.7v.8h-1.7v4.4c0 .4 0 .7.1.8 0 .1.1.2.2.3.1.1.2.1.3.1.3 0 .6-.3.9-.8l.2.2c-.4 1-1.1 1.5-2 1.5-.5 0-.8-.1-1.2-.4-.3-.3-.5-.5-.6-.8 0-.2-.1-.6-.1-1.4v-3.9h-.9v-.3c.6-.5 1.2-.9 1.6-1.4.5-.5.8-1.1 1.2-1.7h.3zM115.5 20.7v1.6c.5-.7.9-1.2 1.2-1.5.4-.2.7-.4 1-.4.3 0 .5.1.7.3.2.2.3.4.3.7 0 .3-.1.6-.3.8-.2.2-.4.3-.6.3-.3 0-.5-.1-.7-.3-.2-.2-.3-.3-.4-.3h-.2c-.2 0-.3.1-.4.2-.2.2-.4.4-.5.7-.2.5-.2 1-.2 1.6v2c0 .3 0 .5.1.6l.3.3c.1.1.3.1.6.1v.3h-3.9v-.3c.3 0 .5-.1.6-.3.1-.1.2-.5.2-1.2v-4c0-.4 0-.7-.1-.8 0-.1-.1-.2-.2-.3-.1-.1-.3-.1-.5-.1v-.3h3v.3z"/><path class="st0" d="M122.7 26.8c-.9.8-1.7 1.2-2.3 1.2-.4 0-.7-.1-1-.4-.3-.3-.4-.6-.4-1 0-.5.2-1 .7-1.5.5-.4 1.5-1 3.1-1.7v-.7c0-.5 0-.9-.1-1-.1-.1-.2-.3-.3-.4-.2-.1-.3-.2-.6-.2s-.6.1-.8.2c-.1.1-.2.2-.2.3 0 .1.1.2.2.4.2.2.3.4.3.6 0 .3-.1.5-.3.6-.2.2-.4.3-.7.3-.3 0-.6-.1-.8-.3-.2-.2-.3-.4-.3-.7 0-.4.1-.7.4-1 .3-.3.7-.6 1.2-.8.5-.2 1.1-.3 1.6-.3.7 0 1.2.1 1.6.4.4.3.6.6.8.9.1.2.1.7.1 1.5v3.4c0 .1.1.1.1.2.1 0 .1.1.2.1s.3-.1.4-.3l.2.2c-.3.4-.5.7-.8.8-.3.2-.6.3-.9.3-.4 0-.7-.1-1-.3-.3-.1-.4-.4-.4-.8zm0-.6v-2.4c-.6.4-1.1.7-1.4 1.2-.2.3-.3.6-.3.8 0 .2.1.4.3.6.1.1.3.2.5.2s.5-.1.9-.4z"/><path d="M128.9 17.5v8.9c0 .5.1.8.2 1 .1.1.3.2.7.2v.3h-3.9v-.3c.3 0 .5-.1.7-.3.1-.1.2-.4.2-.9V19c0-.5-.1-.8-.2-1-.1-.1-.3-.2-.7-.2v-.3h3z"/><path class="st0" d="M132.1 17.2c.3 0 .6.1.8.4.2.2.3.5.3.8 0 .3-.1.6-.4.8-.2.2-.5.3-.8.3-.3 0-.6-.1-.8-.3-.2-.2-.3-.5-.3-.8 0-.3.1-.6.3-.8.3-.3.6-.4.9-.4zm1.1 3.5v5.7c0 .5.1.8.2 1 .1.1.3.2.7.2v.3h-3.9v-.3c.3 0 .5-.1.7-.3.1-.1.2-.4.2-.9v-4.2c0-.5-.1-.8-.2-1-.1-.1-.3-.2-.7-.2v-.3h3zM138.2 26.8c-.9.8-1.7 1.2-2.3 1.2-.4 0-.8-.1-1-.4-.3-.3-.4-.6-.4-1 0-.5.2-1 .7-1.5.5-.4 1.5-1 3.1-1.7v-.7c0-.5 0-.9-.1-1-.1-.1-.2-.3-.3-.4-.2-.1-.3-.2-.5-.2-.3 0-.6.1-.8.2-.1.1-.2.2-.2.3 0 .1.1.2.2.4.2.2.3.4.3.6 0 .3-.1.5-.3.6-.2.2-.4.3-.7.3-.3 0-.6-.1-.8-.3-.2-.2-.3-.4-.3-.7 0-.4.1-.7.4-1 .3-.3.7-.6 1.2-.8.5-.2 1.1-.3 1.6-.3.7 0 1.2.1 1.6.4.4.3.7.6.8.9.1.2.1.7.1 1.5v3.4c0 .1.1.1.1.2.1 0 .1.1.2.1s.3-.1.4-.3l.2.2c-.3.4-.5.7-.8.8-.3.2-.6.3-.9.3-.4 0-.7-.1-1-.3-.3-.1-.4-.4-.5-.8zm0-.6v-2.4c-.6.4-1.1.7-1.4 1.2-.2.3-.3.6-.3.8 0 .2.1.4.3.6.1.1.3.2.5.2.3 0 .6-.1.9-.4z"/><path d="M144.4 20.7v.9c.4-.4.7-.7 1.1-.9.3-.2.7-.3 1.1-.3.5 0 .8.1 1.2.4.3.3.5.6.6 1 .1.3.1.8.1 1.7v2.8c0 .5 0 .9.1 1 .1.1.3.2.6.3v.3h-3.6v-.3c.3 0 .5-.1.6-.3.1-.1.1-.4.1-.9v-3.2c0-.6 0-1-.1-1.1 0-.1-.1-.3-.2-.4-.1-.1-.2-.1-.4-.1-.4 0-.8.3-1.2.9v3.8c0 .5 0 .9.1 1 .1.1.3.2.6.3v.3h-3.6v-.3c.3 0 .5-.1.6-.3.1-.1.1-.4.1-1v-4c0-.5-.1-.9-.2-1-.1-.1-.3-.2-.6-.3v-.3h3zM163.3 17.2v3.6h-.3c-.3-1-.9-1.8-1.5-2.3-.7-.5-1.4-.8-2.2-.8-.8 0-1.4.2-1.9.7-.5.4-.9 1-1.1 1.8-.2.8-.3 1.6-.3 2.4 0 1 .1 1.9.4 2.6.2.7.6 1.3 1.1 1.7.5.3 1.1.5 1.9.5.2 0 .5 0 .8-.1.3-.1.5-.1.8-.2V25c0-.4 0-.7-.1-.8l-.3-.3c-.2-.1-.4-.1-.6-.1h-.3v-.3h5v.3c-.4 0-.7.1-.8.2-.1.1-.3.2-.3.4 0 .1-.1.3-.1.7v2.2c-.7.3-1.4.5-2.1.7-.7.2-1.5.2-2.2.2-1 0-1.8-.1-2.5-.4-.6-.3-1.2-.6-1.7-1.1-.5-.4-.9-.9-1.2-1.5-.4-.7-.5-1.5-.5-2.4 0-1.6.5-2.9 1.6-4s2.5-1.6 4.1-1.6c.5 0 1 0 1.4.1.2 0 .6.2 1.1.4.5.2.8.3.9.3.1 0 .3-.1.4-.2.1-.1.2-.3.3-.6h.2z"/><path class="st0" d="M168.2 20.5c.6 0 1.2.2 1.7.5s.9.8 1.2 1.4c.3.6.4 1.2.4 1.9 0 1-.3 1.9-.8 2.5-.6.8-1.5 1.2-2.6 1.2s-1.9-.4-2.5-1.1c-.6-.8-.9-1.6-.9-2.6s.3-1.9.9-2.7c.8-.7 1.6-1.1 2.6-1.1zm.1.5c-.3 0-.5.1-.7.3-.2.2-.3.6-.4 1.2-.1.6-.1 1.4-.1 2.4 0 .5 0 1.1.1 1.5.1.4.2.6.4.8.2.2.4.3.6.3.2 0 .4-.1.6-.2.2-.2.3-.4.4-.7.1-.5.2-1.5.2-2.9 0-.9 0-1.5-.1-1.8-.1-.3-.2-.6-.4-.7-.3-.1-.4-.2-.6-.2z"/><path d="M175 28l-2.4-5.5c-.3-.7-.5-1.1-.7-1.3-.1-.1-.3-.2-.5-.3v-.3h3.8v.4c-.2 0-.4 0-.5.1-.1.1-.2.2-.2.4s.1.5.3 1.1l1.2 2.7.9-2.3c.3-.7.4-1.1.4-1.4 0-.2-.1-.3-.2-.4-.1-.1-.3-.2-.6-.2v-.3h2.3v.3c-.2 0-.4.1-.5.3-.1.1-.4.5-.6 1.2l-2.4 5.6h-.3V28z"/><path class="st0" d="M184.5 24h-3.9c0 .9.3 1.7.8 2.2.4.4.8.6 1.3.6.3 0 .6-.1.8-.3.2-.2.5-.5.8-.9l.3.2c-.4.8-.8 1.3-1.3 1.7-.5.3-1 .5-1.6.5-1.1 0-1.9-.4-2.4-1.2-.4-.7-.7-1.5-.7-2.4 0-1.2.3-2.1 1-2.8.6-.7 1.4-1.1 2.3-1.1.7 0 1.4.3 1.9.9.4.6.7 1.4.7 2.6zm-1.9-.5c0-.8 0-1.4-.1-1.7-.1-.3-.2-.5-.4-.7-.1-.1-.3-.1-.4-.1-.3 0-.5.1-.6.4-.3.5-.5 1.1-.5 1.9v.3h2v-.1z"/><path d="M187.9 20.7v1.6c.5-.7.9-1.2 1.2-1.5.4-.2.7-.4 1-.4.3 0 .5.1.7.3.2.2.3.4.3.7 0 .3-.1.6-.3.8-.2.2-.4.3-.6.3-.3 0-.5-.1-.7-.3-.2-.2-.3-.3-.4-.3h-.2c-.1 0-.3.1-.4.2-.2.2-.4.4-.5.7-.2.5-.2 1-.2 1.6v2c0 .3 0 .5.1.6l.3.3c.1.1.3.1.6.1v.3H185v-.3c.3 0 .5-.1.6-.3.1-.1.2-.5.2-1.2v-4c0-.4 0-.7-.1-.8 0-.1-.1-.2-.2-.3-.1-.1-.3-.1-.5-.1v-.3h2.9v.3zM194.5 20.7v.9c.4-.4.7-.7 1.1-.9.3-.2.7-.3 1.1-.3.5 0 .8.1 1.2.4.3.3.5.6.6 1 .1.3.1.8.1 1.7v2.8c0 .5 0 .9.1 1 .1.1.3.2.6.3v.3h-3.6v-.3c.3 0 .5-.1.6-.3.1-.1.1-.4.1-.9v-3.2c0-.6 0-1-.1-1.1 0-.1-.1-.3-.2-.4-.1-.1-.2-.1-.4-.1-.4 0-.8.3-1.2.9v3.8c0 .5 0 .9.1 1 .1.1.3.2.6.3v.3h-3.6v-.3c.3 0 .5-.1.6-.3.1-.1.1-.4.1-1v-4c0-.5-.1-.9-.2-1-.1-.1-.3-.2-.6-.3v-.3h3zM202.8 20.7v.9c.4-.4.8-.7 1.1-.9.3-.2.7-.3 1.1-.3.5 0 .8.1 1.2.3.3.2.5.5.7 1 .4-.5.8-.8 1.2-1 .4-.2.8-.3 1.2-.3.5 0 .9.1 1.2.3.3.2.5.5.6.9.1.3.2.9.2 1.7v2.9c0 .5 0 .9.1 1 .1.1.3.2.6.3v.3h-3.7v-.3c.3 0 .5-.1.6-.3.1-.1.1-.5.1-.9v-3.1c0-.6 0-1-.1-1.2-.1-.2-.1-.3-.2-.4-.1-.1-.2-.1-.4-.1s-.4.1-.7.2c-.2.2-.5.4-.7.7v3.8c0 .5 0 .8.1 1 .1.2.3.3.7.3v.3H204v-.3c.2 0 .4-.1.5-.1.1-.1.2-.2.2-.3 0-.1.1-.4.1-.8v-3.1c0-.6 0-1-.1-1.2 0-.2-.1-.3-.3-.4-.1-.1-.2-.1-.4-.1s-.4.1-.6.2c-.2.2-.5.4-.8.8v3.8c0 .5 0 .8.1 1 .1.2.3.2.6.3v.3h-3.7v-.3c.3 0 .5-.1.6-.3.1-.1.1-.4.1-1v-4c0-.5-.1-.9-.2-1-.1-.1-.3-.2-.6-.3v-.3h3.3z"/><path class="st0" d="M218.2 24h-3.9c0 .9.3 1.7.8 2.2.4.4.8.6 1.3.6.3 0 .6-.1.8-.3.3-.2.5-.5.8-.9l.3.2c-.4.8-.8 1.3-1.3 1.7-.5.3-1 .5-1.6.5-1.1 0-1.9-.4-2.4-1.2-.4-.7-.7-1.5-.7-2.4 0-1.2.3-2.1 1-2.8.6-.7 1.4-1.1 2.3-1.1.7 0 1.3.3 1.9.9.4.6.7 1.4.7 2.6zm-1.8-.5c0-.8 0-1.4-.1-1.7-.1-.3-.2-.5-.4-.7-.1-.1-.2-.1-.4-.1-.3 0-.5.1-.6.4-.3.5-.5 1.1-.5 1.9v.3h2v-.1z"/><path d="M221.4 20.7v.9c.4-.4.7-.7 1.1-.9.3-.2.7-.3 1.1-.3.5 0 .8.1 1.2.4.3.3.5.6.6 1 .1.3.1.8.1 1.7v2.8c0 .5 0 .9.1 1 .1.1.3.2.6.3v.3h-3.6v-.3c.3 0 .5-.1.6-.3.1-.1.1-.4.1-.9v-3.2c0-.6 0-1-.1-1.1 0-.1-.1-.3-.2-.4-.1-.1-.2-.1-.4-.1-.4 0-.8.3-1.2.9v3.8c0 .5 0 .9.1 1 .1.1.3.2.6.3v.3h-3.6v-.3c.3 0 .5-.1.6-.3.1-.1.1-.4.1-1v-4c0-.5 0-.9-.2-1-.1-.1-.3-.2-.6-.3v-.3h3zM229.3 18.1v2.6h1.7v.8h-1.7v4.4c0 .4 0 .7.1.8 0 .1.1.2.2.3.1.1.2.1.3.1.3 0 .6-.3.9-.8l.2.2c-.4 1-1.1 1.5-2 1.5-.5 0-.8-.1-1.2-.4-.3-.3-.5-.5-.6-.8-.1-.2-.1-.6-.1-1.4v-3.9h-.9v-.3c.6-.5 1.2-.9 1.6-1.4.5-.5.8-1.1 1.2-1.7h.3zM25.7 44.9c0 .1-.1.2-.2.2M27.5 30.9c.2 0 .4-.2.4-.4s-.2-.4-.4-.4-.4.2-.4.4c.1.2.2.4.4.4zM44.9 15.1H31.4V26c0 1.1.4 2 1.1 2.3l5.2 3.1c.1.1.3.2.5.2s.3-.1.4-.2l5.3-3.1c.6-.3 1.1-1.2 1.1-2.3l-.1-10.9zm-9 3.1h-1.2v-2.8h1.2v2.8zm-.9 1l.2-.2-.1-.2h.2l.1-.2.1.2h.2v.2l.2.2h-.2v.2l-.2-.1-.2.1v-.2H35zm-3.2 3.5V20h1.4v2.6h-1.4v.1zm.2-3.8h.2l.1-.2.1.2h.2v.1l.2.2h-.2v.2l-.2-.1-.2.1v-.2H32l.2-.2-.2-.1zm1.6 2.6h.2l.1-.2.1.2h.2l-.1.2.2.2h-.2v.2L34 22l-.2.1v-.2h-.2l.2-.2-.2-.2zm.9-2.1c0-.1-.1-.1-.1-.1-.1 0-.2.2-.3.2-.1 0-.1 0-.1-.1s.2-.1.2-.2c-.9 0-.9.4-1 .4-.2 0 .2-.4.3-.5-.2 0-.3-.2-.5-.4.1-.1.1-.1.3 0 0-.1.1-.2.3-.2.4 0 .3.4.3.4s0-.4.3-.4c.4 0 .9 1 .4 1-.2.1-.1-.1-.1-.1zm-1-2.9l.2-.2-.1-.2h.2l.1-.2.1.2h.2l-.1.2.2.2h-.2v.2l-.1-.1-.2.1v-.2h-.3zm-.3-1v2.8h-1.4v-2.8h1.4zm2.7 14.3l-3.2-1.9c-.5-.4-.8-1-.9-1.8V23h4.1v6.8zm-1.2-7.1V20h1.2v2.6h-1.2v.1zm5.3 7.4l-1.5.9c-.1.1-.2.1-.4.1s-.3-.1-.4-.1l-1.5-.9v-7H40v7zm0-7.4h-3.8v-7.2H40v7.2zm4.5 3.4c-.1.8-.3 1.4-.9 1.8l-3.2 1.9V23h4.1v3.1zm0-3.4h-4.1v-7.2h4.1v7.2z"/><path d="M35.7 25.5s-.5.2-.4.1c0-.1.3-.4.4-.6 0-.2-.2 0-.5.1.8-1.1.3-.6-.2-.6.7-.7.5-.7 0-.5.4-.3.5-.7.4-.8-.4.5-.7.4-.7.9 0 .3-.1.8-.3 1-.2.2 0-.8-.6-.8-.2 0-.6 0-.7.2.1 0 .3.3.3.4 0 .1.1.4-.1.4s-.4-.4-.4-.6v-.4c0-.4-.7-1-1-1 0 .3.4.4.4.8-.2 0-.4-.3-.4-.1 0 .2.3.2.3.4s-.3-.1-.3.1.2.1.2.3h-.2c0 .1 0 .1.1.2 0 0-.1.1-.1.4 0 .9.5 1.3.9 1.3.3 0 .2-.2.3-.3 0 .1.2-.1.2.2 0 .3-.3.1-.3.4 0 .3.4 0 .4.3v.6c0 .1.5-.2.4-.2.1 0 .1.4.3.4.1 0 .2-.3.3-.4-.1 0 .4.3.4.2 0-.4-.2-.2-.2-.5s.6-.2.5-.3c-.1-.1-.1 0-.2-.2 0 0-.4-.6.1-.3.6.2.7-1 .7-1.1zM50 28.4c.2 0 .4-.2.4-.4s-.2-.4-.4-.4-.4.2-.4.4.2.4.4.4zM48.2 29.5c.2 0 .4-.2.4-.4s-.2-.4-.4-.4-.4.2-.4.4.2.4.4.4zM26.9 31.9c.2 0 .4-.2.4-.4s-.2-.4-.4-.4-.4.2-.4.4.2.4.4.4zM28.3 32c.2 0 .4-.2.4-.4s-.2-.4-.4-.4-.4.2-.4.4c0 .3.2.4.4.4zM66.7 13.4c.7.8.8 2 .3 2.9-.3 0-.2-.4-.3-.5-.5-.9-.8-2-.4-3 .3.1.2.5.4.6zM10.4 14.5c-.1.6-.1 1.3 0 1.9-.1.1-.1-.1-.2-.1-.9-.7-.5-2-.7-2.9 0-.1.2-.1.2 0 .4.2.6.6.7 1.1zM68.7 14.6c.1.3-.1.5-.3.6-.2 0-.4-.1-.6-.3-.1-.3.1-.5.3-.6.2 0 .4.1.6.3zM9 15.6c0 .2-.1.4-.3.5-.1 0-.4 0-.4-.1-.1-.1-.2-.3-.1-.5s.3-.2.4-.2c.1.1.3.1.4.3zM69.6 16v.4c-.2.2-.4.3-.6.2-.2-.1-.2-.3-.3-.4 0-.2.2-.4.4-.4s.4.1.5.2zM68.3 16.1c.2.1 0 .3 0 .5-.1.1-.3.3-.5.2-.1-.1-.3-.1-.3-.3 0-.2.1-.5.3-.5.2-.1.3 0 .5.1zM66.5 16.4c0 .3 0 .6-.3.6-.3.1-.5-.1-.5-.3 0-.2.1-.5.4-.6.2 0 .3.2.4.3zM11.5 16.5c.1.2-.2.4-.3.5-.2 0-.4-.1-.5-.3-.2-.2 0-.3.1-.5.3-.1.6.1.7.3zM10.1 16.6c0 .2-.1.4-.3.4-.2.1-.4-.1-.5-.2-.1-.2 0-.5.2-.5.4-.1.5.1.6.3zM60.9 16.7c.2.5.4 1.1.5 1.7-.1.4.1 1-.3 1.3-.3-.1-.4-.5-.6-.7-.4-.8 0-1.8.1-2.6.2-.1.2.2.3.3zM9 17c.1.3-.1.4-.3.6-.3.1-.5-.1-.6-.3 0-.2.1-.5.3-.6.3-.1.5.1.6.3zM64.6 17.7c.3.7.3 1.5.1 2.3l-.1.1c-.3-.6-.8-1.2-1-1.9 0-.5.1-.9.3-1.3.2-.1.3 0 .3.2 0 .1.1.4.4.6zM67.5 17.2c0 .2-.1.5-.4.6-.2 0-.5 0-.5-.3-.1-.2.1-.5.3-.6.3-.1.5.1.6.3zM10.1 18c0 .2-.2.4-.4.5-.2.1-.3-.1-.5-.2-.1-.2-.1-.4 0-.5.1-.1.2-.1.4-.2.3 0 .5.1.5.4zM11.2 17.8c.1.2-.2.4-.3.5-.3.1-.4-.1-.5-.3 0-.2.1-.4.3-.5.2-.1.4.1.5.3zM68.2 17.8c0 .3-.5.6-.5.9-.3.6-.8 1.1-1.5 1.3-.1.1-.3.3-.5.3 0-.5.4-.9.6-1.3.5-.6 1.2-1 1.9-1.2zM9.7 18.8c.4.4.5.8 1 1.1 0 .1 0 .2-.2.2-1.2 0-2-1.2-2.5-2.1 0-.2.4 0 .5 0 .4.3.9.4 1.2.8zM68.5 19.1c0 1-.5 2.1-1.5 2.6-.3.1-.5.4-.8.2.5-1 1.2-1.8 2.1-2.7h.2v-.1zM64 19.8c.1.4-.1.6-.4.7-.3 0-.4-.2-.5-.4 0-.2.1-.4.3-.5.1-.1.2-.1.3-.1l.3.3zM8.4 20c.4.3.8.7 1.3 1.1-.3.2-.7 0-1 0-.8-.3-1.3-1-2.2-1.2 0-.3.3-.2.5-.2.5-.1.9.2 1.4.3z"/><path d="M33.5 13c-1.3-.5-2.2.9-3.5.7-.2.1-.1.3-.2.4-.1.1-.2 0-.3 0-.1-.6-.3-1.1-.3-1.6-.1-.2-.1-.6-.2-.8-.8-2.1 1.8-.5 2.4-1.7.4-1-.9-1.2-1.3-1.9v-.4c-.4-.4-.8-.5-1-1 .2-.6.2-1.2.1-1.8 0-.1-.1-.3-.3-.3-.4.6-.8 1.1-1.2 1.7-.4-.3-.9-.8-1.4-1-.4 0-.7-.4-1.1-.3-.1.1 0 .3.1.4 0 .9.5 1.7 1.2 2.3V8c-.4 1-.3 2.1-.4 3.1-1.1 2.7-2.8 5.3-5.1 7.2-1.3 1.5-2.9 3-3.2 5.1-.1.3 0 .7-.2 1-.8-.3-1.6-.7-2.2-1.2-1.1-.8-2.6-.7-3.3-2-.3-.5.1-1.1.3-1.5.8-.8.7-2.1.3-3-.1 0-.1.1-.2.1-.1 1.4-1.2 2.4-.8 3.9.1.4.3.7.4 1.2-.2 0-.4 0-.5-.1-.5-.1-1-.3-1.6-.2-1 .4-2.5-.2-3.4.8-.1 0-.3 0-.3.3.5 0 1 .1 1.5.1.8.1 1.4-.5 1.9-.9h.1c.2-.2.6-.1.9-.1 1.5.2 2.6.9 3.9 1.6v.1l-1.5.6c-.5.4-1.2.9-1.3 1.6-.4.6.1 1.1.4 1.6 0 .2 0 .5.3.6.8-.8 0-1.8.2-2.7.2-.7.8-1 1.5-1.2 1.3-.6 2.3.5 3.4 1.1 0 1.1.1 2.1-.1 3.2-.3.1-.8.2-1.1.2-1.9.1-3.3 1.2-5 1.7-.8.3-1.6.2-2.4.5.6.2 1.2 0 1.8-.1 2.3-.3 4.1-2.1 6.6-1.8v.1c-.3.6-.7 1.1-1.1 1.5-.1-.3-.1-.5-.3-.6-.2-.1-.4 0-.5.2-.1.1-.1.3 0 .4.1.2.3.3.5.3 0 .2-.3.3-.4.5-.7 1.1-2 .7-2.8 1.4-.1.2-.5.3-.4.5.9.1 1.8-.1 2.4-.6.9-1 1.8-1.9 2.7-2.8.1.8-.1 1.5-.5 2.2-.2-.1-.4-.3-.6-.4-.2 0-.4.3-.4.5.1.2.2.4.4.5-.8.6-1.8.6-2.7.9-1.7.2-3.4.4-5.1.4-.8 0-1.8.2-2.5 0-1.1.1-2.1-.2-2.8.3-.1.1 0 .2 0 .4 1.1.7 2.6.1 3.8.4h9.3c.7 0 1.4 0 1.9-.4 1.2-.7 1.9-1.9 2.5-3.1.2-.4.4-.9.5-1.4.2-.8 1-1.4 1.8-1.4.1 1.2-.1 2.5-.4 3.6-.1.8-.6 1.5-.3 2.3.1.4.5.4.8.4 2.8 0 5.7-.2 8.7 0 .5.1 1 .3 1.6.2 0-.1.2-.1.1-.2-.1-.3-.3-.6-.6-.7-.1-.1-.3-.1-.3-.2-1.5-.9-3.3-.4-5.1-.4-.9.1-1.8.3-2.6-.3-.4-.4-.1-1.8-.1-1.8 0-.5 1.3-4.3 1.5-4.6 0-.4.2-.7.1-1.1.2-.5.1-1.1.1-1.6.1-.8.5-1.5.7-2.2.1-.4.3-.7.4-1.1.1-.5.2-.9.5-1.2.8.5 1.5.5 1.9 1.3l.3 2c0 .1.1.4.3.2.6-.4.4-1.3.4-1.9.1-.7-.4-1.1-.6-1.7-.2 0-.5-.6-.5-.6-.1-.5-1.2-.9-1-1.5.1-.5.3-1 .8-1.3.1.1.1.1.1.2l.3-.2v-2c.8 0 1.9.1 2.7.1l.6.3.2-.3 1.9-.4c-.8 0-1.3-.9-2.1-.9zM35.6 13.8h.2-.2z"/><path d="M15.1 20.4c0 .3-.1.4-.4.5-.2-.1-.3-.1-.4-.3-.1-.3.1-.4.3-.5.3.1.5.1.5.3zM13.6 20.4c.1.1.2.4.1.5-.2.1-.4.3-.6.1-.1-.1-.3-.3-.2-.5.2-.1.5-.3.7-.1zM64.2 21.1c.1.3-.1.4-.3.5-.2-.1-.5-.1-.5-.4 0-.2.2-.3.4-.4.2 0 .3.2.4.3zM65.5 21c.1.1.2.3 0 .4-.1.1-.2.1-.2.2-.3 0-.5 0-.6-.3 0-.3.2-.4.4-.5.1 0 .3.2.4.2zM7.7 21.3c-.1.3-.3.4-.6.3-.1-.1-.1-.2-.2-.3 0-.2.1-.3.3-.4.2.1.4.2.5.4zM15.6 21.7c0 .2-.2.4-.4.4s-.4-.2-.5-.3c0-.2.1-.4.3-.5.3 0 .5.2.6.4zM14.2 21.6c.1.1.1.3.1.4-.1.1-.4.3-.6.2-.1-.1-.3-.2-.3-.5.1-.1.2-.2.4-.3.2 0 .3.1.4.2zM69.1 21.9c0 .2-.2.4-.3.4-.2.1-.4 0-.5-.1-.1 0-.1-.2-.1-.4.1-.2.3-.3.4-.3.2.1.4.2.5.4zM70.6 22.1c-.1.2-.2.4-.4.4-.1 0-.4-.1-.4-.3 0-.2.1-.3.2-.4.2-.1.5 0 .6.3zM10.4 22.4c0 .3 0 .5-.3.6-.2.1-.3 0-.4-.1-.1-.1-.2-.3-.1-.5 0-.2.3-.2.4-.3.2 0 .3.1.4.3zM11.5 22.6c.1.2-.1.3-.2.4-.1.1-.3.1-.4 0-.2-.1-.4-.4-.2-.6.2-.3.7-.1.8.2zM67.7 22.5c0 .2-.2.4-.3.5-.2 0-.4-.1-.5-.3 0-.2.1-.3.3-.4.2 0 .4 0 .5.2zM69.6 22.9c0 .2 0 .5-.3.6-.2 0-.4 0-.6-.1-.1-.1-.2-.3-.1-.5s.3-.3.6-.3c.2.1.3.2.4.3zM9.5 23.4c.1.2-.1.2-.2.3-.2.1-.3 0-.5 0-.2-.1-.1-.3-.1-.4.3-.5.7-.2.8.1zM68.1 23.8c.1 0 0 .2 0 .2-.6.3-1.4.4-1.9-.1-.3-.2-.6-.3-.9-.5.1-.3.5-.3.8-.4.7.2 1.3.8 2 .8zM10.6 23.6c0 .2-.1.3-.1.4-.1.1-.3.1-.4 0-.2-.1-.3-.4-.2-.6.3-.2.6-.1.7.2zM12.7 23.7c.1.2 0 .4-.2.5-.2.1-.3 0-.4-.1-.1-.2-.3-.4-.1-.5.1-.3.5-.1.7.1zM39.9 24.7c0 .5-.8-.1-.7.6.1.4.2 1 .5 1.3.2.3.1.8.1 1.2-.2.3-.5.6-.9.8-.7-.1-1.7.3-2-.5-.1-.4-.4-.7-.4-1.1.1 0 .2 0 .2-.1 0-.2-.2-.2-.2-.4.8-.1-.3-.8.3-.9.5.6 1.4.4 1.9 1l.3.3c-.1-.6-.4-1.1-.4-1.7-.1-.3 0-.6.3-.8.4-.4.7.1 1 .3zM14.8 24.6c.1.2-.1.4-.3.5-.2.1-.3-.1-.4-.3-.1-.2.1-.4.2-.5.2.1.4.1.5.3zM29.3 24.8c.3.9.2 1.9-.3 2.7 0 .2 0 .5-.2.5-.6-.9-.2-2.1.1-3 0-.3.3-.4.4-.2zM49.4 25.3c.3.7.4 1.5 0 2.2l-.2.2c-.3-.5-.5-1.1-.5-1.7.1-.4.3-.8.3-1.3.3 0 .3.4.4.6zM16.6 25.5c-.1.3-.5.4-.8.5-.6.4-1.4.5-2.1.4.6-.9 1.6-1.3 2.7-1.1 0 .2.2.1.2.2zM6.9 26.4c.9.6 1.1 1.5 1.7 2.3.1.1.3.1.2.3-.2.1-.4-.1-.6-.1-.9-.4-1.5-1.4-1.4-2.4-.1-.1 0-.1.1-.1zM48.5 27.1c0 .2 0 .5-.2.5-.3.1-.5-.1-.5-.3-.1-.2.1-.3.1-.4.1-.1.5 0 .6.2z"/><path d="M58.4 28.4c0-.5.1-.9.2-1.3.1-.1.1-.3.1-.5.6-.8 1.7-.5 2.6-.5.4.2.8.2 1.2.3.2-.1.4-.1.6-.1.8-.4.3-1.3.3-2l-.4-.7c-.1-.1-.1-.3-.2-.5s-.2-.5-.4-.6c-.4-1-1.2-1.6-1.8-2.5-1.2-1.6-3.1-2.4-5-3.1-1.9-.6-3.7.2-5.4.8-.5-.1-.8-.5-.9-1-.1-.9.1-1.8.4-2.5.1-.6.5-1 .6-1.6.4-1.3.9-2.6 1-4.1 0-.9-.6-1.5-1.3-1.9-.4-.1-1-.1-1.3.3-.3.6-1 1.1-1.5 1.4 0 .4.4.1.6.3.5.1 1.1-.1 1.5.3.1.9-.5 1.7-1 2.4-.8 1.2-1.6 2.4-2.1 3.7l-.1-.1.1 5.8c.7 1.2 1.7 2.7 3.1 3.1.8.6 1.7 1.3 2.7.8.5-.2.6.6.8.9.3.9-.4 1.5-.4 2.3l-.4 1.4c-.7 1.4-1.3 2.8-2.4 4-.4 0-.6.4-.9.4-.2.3-.6.1-.8.2-.7.3-1.8.1-2.3.8 0 .1.1.1.2.1 1.4 0 3 .1 4.6 0 .2-.1.4-.2.4-.4-.2-.4.1-.8.3-1.1.1-.6.5-.9.7-1.5.5-1 1.1-1.9 1.6-2.9l.7-1.2c.2-.4.4-.9.7-1.3.2-.2.3-.4.4-.6 0-.2-.1-.3-.2-.5.2-.2.4-.1.6-.2.6.4 1.2.9 1.3 1.6l.2.6.1.3v.8l.1.7c.1 1.1-.1 2.3-.2 3.4-.4 1.4-2 1.2-3.1 1.5-.3.2-.8.1-.8.6 1.4.3 3 .1 4.4.1.2-.1.3-.3.4-.5 0-.3.4-.6.3-.9-.3-.3 0-.9-.1-1.3v-.5c.2-.7.1-1.5.3-2.2l-.1-.8zM70 27.5c-.8 1.1-1.6 2.3-2.9 2.7-.1 0-.2 0-.2-.1.8-.9 1.2-2.2 2.5-2.5.1-.1.4-.2.6-.1zM5.8 28.6c-.1.1 0 .3-.2.3-.2.1-.4 0-.5-.2-.1-.2.1-.5.3-.5.2.1.3.2.4.4zM12.6 29c.1.2-.2.2-.3.3-1 .4-2 0-2.7-.7 0-.1 0-.2.1-.2.9.1 2.1 0 2.9.6zM7.1 28.6c0 .1.1.3 0 .4-.1.2-.4.3-.6.2l-.3-.3c0-.2.2-.4.4-.4s.4 0 .5.1zM29.1 28.8c0 .2-.1.4-.3.4-.2 0-.4 0-.5-.2-.1-.2 0-.4.2-.5.2 0 .5 0 .6.3zM70.8 28.9c.1.2-.1.4-.3.5-.1.1-.3 0-.4-.1 0-.1-.2-.2-.1-.4s.3-.3.5-.3c.1.1.2.1.3.3zM72.4 28.8c.1.2 0 .4-.1.5-.1.2-.3.2-.4.1-.1-.1-.3-.2-.4-.4 0-.2.2-.3.4-.4.2-.1.3.2.5.2zM4.8 29.4c0 .2-.1.3-.2.4-.1 0-.2.1-.4.1-.2-.1-.3-.2-.4-.4 0-.2.2-.4.4-.5.3.1.5.2.6.4z"/><path d="M54.3 29.4v.3c-.1.2-.3.4-.6.2-.1-.1-.3-.3-.2-.5.2-.2.6-.3.8 0zM8.6 29.8c0 .2-.1.3-.3.4-.3 0-.3-.2-.4-.3 0-.2 0-.4.2-.5.2-.1.5.1.5.4zM6.3 29.8c.1.2-.1.4-.2.5-.3.1-.5-.1-.6-.3 0-.2.2-.5.4-.5s.3.2.4.3zM55.8 29.8c0 .2 0 .5-.3.6-.3.1-.5-.1-.6-.3.1-.2.1-.5.4-.5.3-.1.4 0 .5.2zM7.4 29.9c.1.2-.1.2-.1.4-.1 0-.2.1-.3.1-.1-.1-.3-.2-.3-.3 0-.2.1-.4.3-.5.2-.1.4.1.4.3zM69.6 30.1c-.1.2-.2.3-.4.4-.2 0-.3-.1-.4-.2-.1-.1-.1-.3 0-.4.1-.5.8-.3.8.2zM71.3 30.2c-.1.3-.3.4-.6.4-.2-.1-.4-.3-.3-.5.1-.1.1-.2.3-.2.4-.2.6 0 .6.3zM60.2 30.3c.1.3-.2.4-.4.5-.2 0-.3-.1-.4-.2 0-.3.1-.5.3-.6.2.1.3.2.5.3zM53.7 30.6c.1 0 .1.2 0 .3-.1.1-.3.3-.5.2-.2-.1-.3-.2-.2-.5.1-.2.6-.2.7 0zM55 30.8c0 .2 0 .3-.2.4-.2.2-.4 0-.5-.1 0-.1-.1-.2 0-.4.1-.1.2-.2.3-.2.2.1.4.1.4.3zM15.1 30.8c.1.1 0 .3 0 .5-.1.1-.4.3-.6.1-.2-.1-.2-.4-.2-.6.1 0 .1-.2.3-.2.3 0 .4.1.5.2zM62.7 30.9c0 .2-.2.3-.4.4-.3.1-.4-.1-.5-.3 0-.1.1-.2.2-.4.3-.1.5.1.7.3zM61.4 30.9c.1.2-.2.4-.3.5-.2.1-.4 0-.5-.1-.1-.1-.1-.2-.1-.4.1-.1.2-.3.4-.3s.4.2.5.3zM72 31.2c0 .3-.4.2-.5.3-1 .6-2.3.1-3.2-.2.1-.3.4-.2.6-.3 1-.7 2 .1 3.1.2zM7.7 30.9l-.1.2c-.9.5-2 .9-3 .5l-.1-.1c.8-.7 2-.8 3.2-.6zM65.1 31.1c0 .2-.1.4-.2.5-.2.1-.5 0-.6-.3-.1-.2.1-.4.3-.5.1 0 .4 0 .5.3zM11.9 31.2c-.1.2 0 .4-.3.5-.2.1-.5-.1-.6-.3-.1-.3.1-.3.2-.4.3-.2.6 0 .7.2zM10.2 31.3c.1.2-.1.3-.1.4-.1.1-.3.1-.5.1-.2-.1-.3-.3-.3-.6.1-.1.2-.2.4-.3.3.1.5.2.5.4zM66.7 31.8c0 .2-.2.4-.4.4s-.4-.1-.4-.2c-.1-.1 0-.3.1-.4 0-.1.2-.1.3-.1.2 0 .4.1.4.3zM8.5 31.6c.1.2-.1.3-.1.4-.1.4-.3.7-.5 1-.4.5-1.1.5-1.7.7l-.2-.2c.7-.9 1.5-1.5 2.5-1.9zM65.6 32.1c0 .3-.2.3-.4.4-.2 0-.4-.1-.5-.3-.1-.3.2-.4.3-.5.3 0 .5.2.6.4zM11.2 32.1s0 .1.1.1c0 .3-.2.3-.4.4-.2 0-.4-.1-.5-.2-.1-.2 0-.5.2-.5s.5 0 .6.2zM69.9 32.8c.2 0 .3-.3.5-.4.2 0 .4.1.6.3.1.3-.1.4-.3.5-.2.1-.5-.1-.5.2.2.1.3.3.3.5 0 .1-.2.1-.3 0-.7-.3-1.4-.8-1.7-1.5-.1-.2-.5-.4-.3-.6.7 0 1.3.6 1.7 1zM72.1 32.1c.1.1.1.3 0 .4-.1.2-.5.1-.7.1-.1-.1-.2-.2-.2-.4.1-.1.2-.2.4-.3.2 0 .4.1.5.2zM63.6 33.4c.2.3.4.7.5 1 0 .1-.2 0-.2 0-.8-.4-1.8-.9-2.1-1.9-.1-.1-.3-.2-.2-.4.6-.1 1.2.3 1.6.7.1.2.3.3.4.6zM9.9 32.5c.1.2-.1.4-.2.5-.3 0-.4 0-.5-.2-.2-.3.1-.5.3-.6.1-.1.3.1.4.3zM66.5 33c0 .1-.2.2-.2.3-.2 0-.4.1-.5-.1 0-.1-.2-.3 0-.4.2-.3.6 0 .7.2zM72.4 33.3c.1.3-.1.5-.3.6-.2.1-.4-.1-.6-.2-.1-.1 0-.3 0-.5.2-.1.4-.3.6-.2.1.2.2.2.3.3zM56.1 36.6c0 .3-.5.2-.7.4-.7.4-1.6.4-2.5.4v-.1c.9-.8 2.1-1 3.2-.7zM21.8 37.6c0 .2-.1.3-.4.4-.2 0-.3-.1-.4-.2-.1-.3.1-.4.3-.5.3 0 .5.1.5.3zM55.7 37.9c0 .2-.1.4-.4.5-.2 0-.4-.1-.5-.2-.1-.1 0-.3-.1-.4.3-.4.9-.4 1 .1zM60.4 38c-.6.4-1.2.8-2 .8h-1.3l-.1-.1c.8-.9 2.2-.9 3.4-.9v.2zM15.4 38.5c0 .2-.1.4-.3.5-.2 0-.4 0-.5-.2-.1-.2 0-.4.2-.5.3-.2.5 0 .6.2zM16.6 38.8c.1.1 0 .2-.1.3-.1.1-.3.1-.4 0-.2-.1-.2-.3-.1-.4.1-.1.2-.1.3-.2 0 0 .2.1.3.3zM7.6 41.2c-.3.3-.6-.1-.9-.2-.8-.5-.8-1.4-1.6-1.9.1-.3.3 0 .5 0 .1.1.3.2.5.3.7.3.9 1.1 1.5 1.8z"/><path d="M76.1 32c-.4-.7-1-1-1.8-1-.6 0-1.1.5-1.3 1-.1.5 0 1 .4 1.3.2.1.4 0 .5-.1.1-.3-.2-.3-.3-.5-.1-.3 0-.6.3-.8.2-.2.6-.1.9-.1.3.2.6.4.7.7.1.4.1.9 0 1.3-.3.6-.8 1.1-1.5 1.2-2 .3-23.4.2-23.4.2-2.5.2-5.4-.5-7.5.9-1 .5-1.5 1.6-1.7 2.5-.6.6-1.3 1.2-1.8 1.9l-.1-.1c.1-.6.4-1.1.5-1.6.4-.5.4-1.1.6-1.6.9-1.4 1.7-2.9 3.1-3.9.6-.8 1.6-.6 2.5-.6 1 .4 2.1.6 3.3.5 0 0 .1-.1.1-.2-.3-.3-.9-.4-1.2-.7-.9-.5-1.8.1-2.8.1 0-.1-.1-.1-.1-.1.9-.7 1.9-1.1 2.9-1.6.8-.4 1.7-.7 2.6-1 .4 0 .7-.3 1-.1l1.2-.3s.1.1.2.1c1.1-.4 2.4 0 3.6 0l.2.1 1.1.3c.4.1.6.5 1.1.6.2-.3-.3-.5-.4-.7.5-.1 1.1 0 1.6.2l-.2.3c-.1.3.1.4.3.5.2 0 .3-.1.4-.1.3-.2 0-.4.1-.6 1.7.3 3.4.7 5 1.4.4.1.9.5 1.4.4-.5-.4-1.2-.7-1.8-.9-.4-.2-1-.3-1.3-.6.1-.1.2-.1.3-.2.8-.1 1.5-.7 2-1.3 0-.1.3-.1.3-.3-.2-.2-.6.1-.8 0-1 .2-1.4 1.3-2.4 1.6l-3.6-.9c-.6-.1-1.2-.1-1.8-.4l-1.3-.1h-2.4c0-.1-.1-.1-.1-.1.8-.2 1.6-.7 2.4-.9l6.3-2.9c.7-.6 1.2-1.3 1.8-1.9 0-.2-.1-.4-.3-.5-.2-.1-.4 0-.5.1-.3.2 0 .5 0 .7-.3.4-.7.7-1.1.9-.1 0-6.5 2.9-6.5 2.9-.9.4-1.9.9-2.9 1.1l-1.4.2c-.1.3-.3.5-.6.5-.4.1-.7.3-1.1.3-3.1 1.2-6.2 2.4-8.7 4.9.1-.3.2-.6.2-1s0-.8-.3-1c-.1-.1-.2-.5-.2-.6l-.3.2c-.2.5-.4 1.5-.2 2 .1.4.4.9.1 1.3-1.1 1.4-1.8 3-2.5 4.6-.3 0-.4-.3-.5-.6.8-1 1.4-2.2 1.7-3.5.2-.1 0-.4.2-.6 0-.4.2-.8 0-1.1.2-.5-.7-1-.2-1.3l-.4.2c-1 1.3.5 3.3-.6 4.6v.1c-.3.4-.5.9-.9 1.1-.6-.2-.8-.9-1.1-1.3-.5-.5-.5-1.5-.2-2.2.2-.7-.1-1.3-.2-1.9l-.2-.1c-.6.7-.8 1.9-.3 2.8.2.4.3 1 .6 1.4.2.7.6 1.1 1 1.8.1.2-.1.3-.3.4-.3-.2-.2-.5-.4-.7-.8-1.7-1.8-3-3-4.3 0-.2-.3-.4-.1-.6.4-.4.5-1.3.3-1.8 0-.1-.2-.3-.2-.4l-.4-.3c0 .8-.5 1.6-.3 2.4-2.4-1.8-5.1-3.5-7.8-4.7l-.1.1c.7.2 2.5 1.3 2.5 1.3.8.3 1.6.8 2.4 1.3 3.2 1.8 5.3 4.7 6.7 8 0 .3.3.5.1.8-.5-.8-1.2-1.2-1.8-1.8-.2-1.1-.8-2.2-1.8-2.6-.4-.5-1.1-.6-1.7-.7h-8.6c-7-.1-13.3.2-20.2.1-1-.1-2.1-.4-2.4-1.4-.2-.4-.2-1 0-1.3.3-.7.8-.8 1.2-.9.4 0 .6.4.8.7 0 .3-.3.6-.4.9 0 .1.1.3.3.2.3-.1.5-.4.6-.8 0-.2.1-.4-.1-.5-.1-.5-.7-.9-1.1-1-.6 0-1.2.1-1.6.5-.6.5-.5 1.3-.4 2 .4 1 1.5 1.7 2.5 1.9l22.9.1c2.2.1 4.7-.3 7 .2.8.3 1.7.9 1.9 1.8h-.2c-1.9-1.2-4.3-1.7-6.7-1.4-.9 0-1.8.3-2.6.5-.4.1-.9-.1-1.2-.4-.8-.8-2.3-.7-3.4-.4v.2c1.2-.1 1.8.9 2.9 1 .2 0 .4-.2.6 0-1.1.5-2.1 1.1-3.3 1.5-.4-.1-.5-.4-.8-.6-.4-.5-1.3-.3-1.9-.3-.2 0-.4-.1-.5 0 .2.4.6.6 1 .8.6.3 1.3 0 1.8.3-.1.2-.3.2-.5.3-1.1.4-2 1.4-3.2 1.3-1.3.1-2.6-.2-3.5-1.1-.4-.9-1.3-1.4-2.4-1.4-.1 0-.2 0-.1.2.5.3.9.9 1.4 1.3.3.4 1 0 1.3.4.5.3 1 .6 1.5.7.4.2.8.2 1.2.3l-.2.1c-2.1.7-4.6.8-7 .7-.7 0-1.4-.2-2.1-.2l.8.4c-.2.1-.4.2-.6.2-.3.1-.6.1-.9.2-.4 0-.7.1-1 .2-.4.4-.9.9-1.3 1.1 0 .1 0 .2.1.2.4-.2 1-.1 1.5-.2.8-.1 1.2-.9 1.8-1.3.7-.5 1.6-.4 2.4-.3.5.1 0 .3.1.6.2.2.4.4.6.3 0-.1.1-.1.2-.1.1-.2.1-.4 0-.6.3-.2.8 0 1.1-.1.9 0 1.8-.2 2.7-.2.1 0 .3-.2.4 0-.1.2-.3.2-.2.5 0 .2.3.3.5.4.2-.1.4-.3.4-.6 0-.2-.2-.2-.4-.3.5-.2 1.1-.3 1.6-.5.4-.1.7-.2 1-.3.3 0 .6-.3.8-.2-.1.4-.3.8-.5 1.1-.4 1.3-.7 2.9 0 4.1h.1c-.5-1.3-.2-2.7.2-3.9.3-2 2.4-2.6 3.9-3.4l.1.1c-.4 1-1 2-.9 3.3 0 .2-.1.4 0 .6.4-.2.7-.7.9-1.1.2-1.1-.4-2.4.6-3.2 1.9-.8 3.7-1.8 6-1.8.1.1.2 0 .3.1-.5.5-1.2 1-1.4 1.7-.8 1-.7 2.8-.4 4.1.2.7-.4 1.1-.7 1.7-.1.2-.2.5-.3.8l.5.1c.4-.4.8-.9.8-1.6 0 .2.3.4.4.5.2-.3-.1-.4-.2-.7.4-.2.5.3.8.4.5.1.9.3 1.4.3l.2-.2c-.5-.8-1.5-.9-2.4-1-.5-.8-.5-1.8-.4-2.7.1-.5.2-1 .5-1.5.1-.3.4-.6.7-.9.4-.4 1-.7 1.5-.8h.1v.1c-.6.5-.7 1.2-1.1 1.8-.4.6-.6 1.4-.2 2.1.1.3.1.8.4 1 .3-.4.3-1 .5-1.4-.1-.8-.5-1.5-.1-2.3.2-.6.7-.8 1.3-1 1.3-.1 2.4.5 3.5 1 .2.2.6.3.7.6 0 .6-.4 1.3-.9 1.6-.6.4-1.6.4-2.1 0-.4-.4-.5-1-.4-1.4.3-.3.6-.5 1-.4.2.1.4.4.8.2.1-.1.2-.3.1-.4-.3-.1-.4-.5-.7-.5-.4-.1-1 0-1.3.3-.5.4-.7 1.1-.5 1.7.2.8.7 1.3 1.5 1.5 1.1.3 2.2-.1 2.9-1 .3-.3.4-.6.5-1 1.1.7 2 1.9 2.4 3.1 0 .4.1.8 0 1.2l.8.1c-.1-.2 0-.4.1-.6.3-1.6 1.3-2.9 2.4-3.9.4-.2.3.3.4.5.4.9 1.2 1.5 2 1.8 1 .2 1.9-.1 2.5-.8.3-.6.7-1.4.2-2-.3-.4-.8-.6-1.3-.6-.6 0-1 .4-1.3.9 0 .2 0 .4.1.5.1 0 .3 0 .4-.1 0-.4.4-.5.6-.7.3-.1.5 0 .8.1.3.2.3.6.3.9 0 .4-.4.9-.8 1.1-.7.4-1.7.2-2.3-.2-.3-.3-.4-.7-.7-1 0-.4-.2-.7 0-1.1 1-.6 2.1-1.1 3.4-1.2.5.1.9.4 1.2.8 1.1 1.1-.2 2.7.5 3.9.3 0 .3-.4.4-.7.4-.9-.1-1.8-.3-2.6-.3-.5-.4-1-.9-1.4h.3c.5.3 1 .7 1.4 1.2.7 1.1 1 2.4.9 3.9-.2.7-.9 1-1.5 1.3-.2.2-.5.5-.6.8.3.2.7 0 1-.1.4-.2.7-.7 1-1v.1c0 .3-.1.6.1.7.1-.3.1-.8.2-1.2.3.3.4.8.4 1.2.2.4.6 1 1.1 1.1.1-.2 0-.4-.1-.6-.1-.6-.6-.9-.9-1.3-.8-1.1-.4-2.9-1.1-4.2-.2-.7-.7-1.2-1.3-1.8l.1-.1c1.2 0 2.1.4 3.2.6 1.3.6 3.2.5 3.8 2.2.3.9.7 1.8 1.3 2.6h.1c.1-.2.1-.6 0-.9-.1-1.2-1.2-1.5-1.7-2.5l.1-.1c.6.2 1.2.3 1.7.5 1.9.5 3.2 2.4 3.4 4.3 0 1.5-.3 2.8-.9 4-.1.2-.4.4-.2.6.3-.2.3-.5.4-.7.8-1.3 1.2-3.1.8-4.8 0-.3-.4-.5-.2-.9.1.1.3.2.4.2.1-.1.4-.1.4-.3 0-.1.1-.3 0-.4-.1-.2-.4-.2-.7-.2-.1.1-.3.3-.3.5-.2-.4-.5-.9-.8-1.3v-.1c1.1.4 2 .9 3.1 1.2.2.1.5.3.8.3.9.4 1.9.5 2.9.7.7-.1 1.3.3 2 .1-.3-.3-.8 0-1.1-.3-1.6-.2-3.2-.6-4.6-1.2 0-.1.1 0 .2 0 .2-.1.4-.3.4-.6-.1-.2-.3-.3-.5-.3-.1.1-.3.2-.4.4 0 .2.2.4.4.5h-.2c-.7-.3-1.4-.6-2.1-1-.3 0-.5-.3-.7-.3-.5-.3-1.1-.5-1.6-.7-1.5-.8-3.2-1.2-4.8-1.8-.4-.1-.7-.2-1-.3-.6-.2-1.2-.3-1.8-.5-2-.5-4.7-.5-6.4.5-.3-.1-.4.4-.6.1.5-1.3 1.9-1.7 3.2-1.8 9.4-.1 18.3-.2 27.5-.3 1.1 0 2.1-.4 2.7-1.3.5-.7.6-1.7.3-2.3zm-37.4 8.7c-.1.3-.3.5-.3.8h-.1c.1-.4-.3-.6-.2-.9-.1-.2-.1-.6-.3-.9-.2-.4.2-.5.4-.8.3.1.4.4.7.7.1.4-.2.7-.2 1.1z"/><path d="M64.2 39.2c0 .1.1.1.1.2-.8.7-2 .9-3.2 1-.1 0-.2.1-.3.1-.1 0-.1-.1 0-.2.9-.9 2.1-1.4 3.4-1.1zM60.4 39.6c.1.3-.1.5-.4.6-.3 0-.4-.2-.5-.4-.1-.2.1-.3.2-.4.2-.1.6-.1.7.2zM15.8 39.6c0 .2 0 .4-.1.5-.1.1-.3.1-.4.1-.2 0-.3-.2-.3-.4s.1-.3.3-.5c.1.2.3.1.5.3zM11.5 41.2v.2c-.6.1-1.1 0-1.5-.4-.3-.5-.7-1-1.2-1.2 0-.1-.1-.2 0-.2 1.1 0 1.9.9 2.7 1.6zM67.8 39.6c-.5.8-1 1.8-2 2.2-.2 0-.3.2-.4.1.4-.9 1.2-1.9 2.1-2.2.1-.1.2-.1.3-.1zM17.1 39.9c0 .3-.2.3-.3.4-.2 0-.3-.1-.4-.3-.1-.2.1-.3.2-.5.2.1.4.2.5.4zM70.7 40c-.2.3-.1.8-.3 1.1-.5.5-.9 1.2-1.6 1.3-.1-.2.2-.5.3-.7.3-.7.8-1.5 1.6-1.8v.1zM4.3 40.3c.1.2.1.3 0 .5-.1.1-.4.2-.5.1-.2-.1-.3-.4-.2-.6.1-.2.5-.3.7 0zM2.9 40.5c0 .1.1.2.1.3-.1.1-.2.3-.3.3-.3 0-.4-.1-.5-.3 0-.2 0-.4.2-.5.2 0 .4.1.5.2zM5.7 40.7c0 .2.1.5-.2.6-.3.1-.5-.1-.7-.3 0-.2.1-.4.3-.5.2 0 .4 0 .6.2zM9.6 41c0 .2 0 .4-.2.5-.1.1-.3.1-.4 0 0-.1-.3-.3-.2-.4l.3-.3c.1.1.4 0 .5.2zM73 41.2c-.1.2-.2.4-.4.4s-.4 0-.5-.3c-.1-.3.1-.4.3-.5.3 0 .6.1.6.4zM68.7 41.3c0 .2-.2.3-.3.4-.3.1-.6-.1-.7-.4 0-.2.2-.4.4-.4.3 0 .5.1.6.4zM71.6 41.2c0 .2-.1.3-.2.4-.2.1-.4 0-.6-.1-.2-.2 0-.4.1-.5.3-.1.6 0 .7.2zM3.7 41.6c0 .3 0 .5-.3.6-.2 0-.4-.1-.5-.3 0-.2 0-.4.2-.5.2-.1.4.1.6.2zM67.5 41.9c.1.3-.1.5-.3.6-.2 0-.3 0-.4-.2-.1-.1-.2-.4 0-.5.1-.3.6-.2.7.1zM16.3 42.2c.1.3-.2.3-.3.5-.1 0-.3.1-.4 0-.1-.1-.3-.3-.2-.5.1-.1.2-.2.3-.2.4-.2.5 0 .6.2zM72.6 42.3c0 .2-.1.2-.1.4-.1.1-.4.1-.5.1-.2-.1-.2-.3-.2-.5l.3-.3c.2 0 .4.1.5.3zM71.1 42.4c.1.3-.2.4-.4.5-.1 0-.2-.1-.3.1.6.3 1 .8 1.5 1.3v.2c-.8 0-1.7-.2-2.3-.9-.2-.1-.4-.1-.6-.3.3-.3.9-.2 1.3-.2.3-.3-.4-.6 0-.9.1 0 .2-.2.4-.1.2 0 .3.2.4.3zM61.5 42.4c0 .1-.1.3-.1.4-.1.1-.4.2-.5.1-.1-.2-.3-.3-.2-.5.1-.4.7-.3.8 0zM9 43.2c-.1.2-.2.4-.4.4s-.4-.1-.4-.3c0-.2.1-.3.1-.4.2-.1.7 0 .7.3zM10.9 42.9c0 .3-.4.5-.5.8-.4.8-1 1.5-1.9 1.6-.1-.2.3-.5.4-.7.4-.8 1.1-1.2 1.8-1.7h.2zM60.9 43.3c0 .3-.2.4-.4.5-.2.1-.4-.1-.5-.2-.2-.2-.1-.4 0-.6.4-.2.8 0 .9.3zM62.4 43.4c0 .3-.2.4-.4.5 0-.1-.2 0-.2-.1-.2-.1-.3-.2-.3-.4.1-.1.2-.3.3-.3.2 0 .5.1.6.3zM14.5 43.4c0 .3-.2.4-.4.5-.2 0-.4-.1-.4-.3 0-.2.2-.4.3-.5.3 0 .3.2.5.3zM16.1 43.5c-.1.2-.2.4-.4.4s-.4-.1-.4-.3c0-.2.2-.4.3-.5.2.1.5.1.5.4zM67.5 45.2c.1.1.3.2.3.4-.4.2-.7-.3-1-.3-.6-.6-1-1.2-1.2-1.9.2-.2.4 0 .6.1.5.4 1 1 1.3 1.7zM68.3 43.5c.1.2 0 .4 0 .5-.1.2-.4.2-.7.1-.1-.1-.3-.3-.2-.5.1-.2.3-.2.4-.3.2 0 .4.1.5.2zM18.3 44.1c0 .2.1.5-.2.6-.2 0-.5 0-.6-.3-.1-.3.1-.3.3-.5.2 0 .4.1.5.2zM62.3 45.7c.3.5.6 1.1.6 1.7-.1.2.1.3 0 .4h-.1c-1.1-.8-1.3-1.8-1.7-2.9-.1 0-.1-.1-.1-.2.2-.2.4.2.6.3l.7.7zM21.4 44.9c-.1 0 0 0 0 0-.9.7-2.2 1.1-3.3.5 0-.1 0-.2.1-.2.7-.2 1.3-.5 2.1-.4l1.1.1zM16 45c-.8.5-1.5 1.5-2.5 1.7-.2.1-.3.3-.5.2.4-1.3 1.8-2 3.1-2.1v.2H16zM60.9 46c.1.2 0 .5-.2.5-.1.1-.4.1-.4 0-.2-.1-.2-.3-.2-.5.1-.2.2-.2.4-.3.2.2.3.2.4.3zM59 46.2c-.1.3-.5.5-.8.6-.8.3-1.5-.1-2.2-.3 0-.2.3-.1.4-.2.8-.2 1.6-.3 2.4-.1 0-.1.1-.1.2 0zM16 46.8c-.1.1-.1.3-.3.4-.2.1-.3 0-.5-.1 0-.1-.2-.3-.1-.4 0-.2.2-.2.4-.3.3.1.4.2.5.4zM17.4 47.1c-.1.1-.1.4-.3.5-.2 0-.3 0-.5-.2-.1-.1-.1-.3-.1-.5 0-.1.2-.1.3-.2.3-.1.5.2.6.4zM60.5 47.3c0 .2-.1.3-.2.5s-.4.2-.5.1c-.2 0-.2-.2-.3-.3-.1-.2.1-.3.2-.5.3-.3.7-.2.8.2zM61.5 47.2c0 .1.1.2 0 .3-.1.1-.2.4-.5.3-.1 0-.2-.1-.3-.2-.1-.2 0-.6.3-.6s.4.2.5.2zM16.5 47.9c0 .3 0 .5-.2.6-.3 0-.6 0-.7-.3 0-.2 0-.5.3-.7.2.1.5.2.6.4zM17.9 47.8c0 .7-.2 1.5-.8 1.8-.4.1-.8.4-1.1.2v-.1c.4-.7 1.3-1.2 1.9-1.9zM56.8 48.4c.1.1-.1.3-.1.4-.1.2-.4.1-.6 0-.2-.1-.2-.3-.1-.5 0-.1.2-.2.3-.3.2 0 .4.2.5.4zM20.2 49.5c.3.5.1 1.3.3 1.9-.4 0-.6-.4-.8-.6-.5-.8-.4-1.8-.7-2.6 0-.1.1-.1.2 0 .4.2.6.7.9 1 0 .1.1.1.1.3zM58 48.6c0 .2-.2.2-.3.4-.2 0-.3-.1-.4-.2-.1-.2.1-.3.2-.4.2-.2.4-.1.5.2zM60.8 50.7c0 .1 0 .2-.1.2h-.1c-.7-.6-1.4-1.3-1.3-2.3h.1c.7.5 1.4 1.1 1.4 2.1zM59 49.9c0 .2-.1.3-.2.4-.3.1-.7 0-.7-.3 0-.2.2-.4.4-.5.2 0 .4.2.5.4zM57.5 50.4c-.3.9-1.2 1.3-1.8 2-.1-.1-.1-.3 0-.4.2-.9.9-1.8 1.8-2.1.3.1-.1.3 0 .5zM59.2 51.1c0 .2-.2.3-.3.4-.2 0-.4-.1-.5-.3 0-.2.2-.3.3-.4.2 0 .4.1.5.3zM41.7 8.2c.3 0 .6.3.6.6s-.3.6-.6.6h-7c-.3 0-.6-.3-.6-.6s.3-.6.6-.6h7zm-4.9 1c.7 0 0-.8-.3-.8h-.7c-.7 0 0 .8.3.8h.7zm2.9 0c.7 0 0-.8-.3-.8h-.7c-.7 0 0 .8.3.8h.7zm2.1-.9h-.3c-.7 0-.1.8.3.8.4.1.5-.8 0-.8zM41.1 16.2l1.3.5 1.3-.5-.5 2 1-.2-.4 1.2.4 1.1-.8-.3.4 2.1-1.3-.5-1.3.5.5-2.1-1.1.3.3-1.2-.3-1.1 1 .2-.5-2zm2 3.5c.3 0 .3-.4.3-.8 0-.8-.6 0-1-.8-.2.6-.9 0-.9.7 0 .5 0 .8.5.8h1.1v.1zm-1.3-.7c0 .3.4.1.7.1.3 0 .7.2.7-.1 0-.4-.4-.3-.7-.3-.3 0-.7-.2-.7.3zM38 19v-.2l-.2-.1.2-.1-.1-.2h.2l.1-.3.2.3h.2l-.1.2.2.1-.3.1v.2l-.2-.1-.2.1zM37 20.4v-.3h-.2l.1-.2-.1-.2h.3l.1-.2.1.2h.3l-.1.2.1.2h-.2v.3l-.2-.2-.2.2zM38.7 20.2v-.3h-.2l.2-.2-.1-.2h.2l.1-.2.2.2h.2l-.1.2.2.2h-.2v.3l-.3-.2-.2.2zM38.9 21.2V21h-.1l.1-.1v-.1h.1l.1-.1v.1h.2l-.1.1.1.1h-.1v.2l-.1-.1-.2.1zM37.3 22.3v-.4l-.4-.1.3-.3-.2-.3h.4l.3-.4.2.4h.4l-.2.3.3.3-.4.1v.4l-.3-.2-.4.2zM38.1 0l.9 2 2.1-.6L40 3.3l1.8 1.3-2.2.4.2 2.2-1.7-1.5-1.6 1.5.2-2.2-2.2-.4 1.8-1.3-1.1-1.9 2.1.6.8-2zM30.6 45.7c-.2.1-.3.2-.3.4l.3 1.2c.1.2.1.6-.1.8-.2.3-.6.4-.9.5-.2 0-.6.1-1 0-.2-.1-.4-.2-.5-.6l-.3-1.3c-.1-.3-.2-.3-.5-.3v-.1l1.6-.4v.1c-.3.1-.4.1-.4.5l.3 1.3c.1.2.2.8.9.6.8-.2.7-.8.6-1l-.3-1.2c-.1-.2-.1-.4-.5-.3v-.1l1.1-.1zM32.9 45.9c-.1-.3-.5-.6-1.1-.5-.2.1-.5.2-.4.5 0 .2.2.3.6.4l.7.1c.2 0 .6.2.7.6.1.3-.1.9-1 1.1-.4.1-.7 0-.8 0-.1 0-.1.1-.1.2h-.1l-.2-1h.1c.2.4.5.8 1.1.6.6-.1.5-.5.5-.6-.1-.3-.3-.3-.6-.4l-.3-.1c-.9-.1-.9-.5-1-.7-.1-.2 0-.8.9-1 .4-.1.6 0 .8 0 .1 0 .1-.1.1-.2h.1l.2.8-.2.2zM36 47.5l-1.7.2v-.1c.3-.1.5-.1.4-.4l-.2-2.2c-.3 0-.8.1-.9.8h-.1V45l2.9-.3.1.8h-.1c-.2-.6-.7-.6-1-.6l.2 2.1c0 .3.1.3.5.3l-.1.2zM40 47.5h-1l-1-1.3h-.1v.8c0 .3.1.3.4.4v.1h-1.6v-.1c.3 0 .4 0 .4-.4v-1.8c0-.3-.1-.4-.4-.4v-.1h1.5c.3 0 1.4.1 1.3.7 0 .5-.5.6-.8.7l.9 1.2c.1.1.1.1.2.1v.1h.2zM37.9 46c.6 0 .9-.1.9-.6 0-.4-.2-.6-.6-.6-.3 0-.3 0-.3.2v1z"/><path d="M43.1 47.9l-1.5-.2v-.1c.3 0 .4 0 .4-.1s-.1-.4-.2-.6l-1.1-.1c-.2.3-.3.4-.3.5 0 .2.2.2.4.2v.1l-1-.1v-.1c.3 0 .3-.1.5-.4l1.3-2.1h.1l.8 2.2c.2.5.2.6.4.6l.2.2zm-1.3-1.2l-.4-1-.6.9 1 .1zM45.9 48.4l-2.7-.5v-.1c.3 0 .4 0 .5-.2l.3-1.9c0-.3-.1-.3-.4-.4v-.1l1.6.3v.1c-.3 0-.5-.1-.5.3l-.3 1.9c0 .2.1.2.4.3.7.1 1-.1 1.3-.6h.1l-.3.9zM47.7 48.8l-1.6-.3v-.1c.3 0 .4.1.5-.2l.4-1.9c.1-.3-.2-.3-.4-.4v-.1l1.6.3v.1c-.2 0-.4-.1-.5.2l-.4 1.9c0 .3.2.4.4.5zM51.1 49.3l-1.5-.2V49c.3 0 .4 0 .4-.1s-.1-.4-.2-.6l-1.1-.1c-.2.3-.3.4-.3.5 0 .2.2.2.4.2v.1l-1-.1v-.1c.3 0 .3-.1.5-.4l1.3-2.1h.1l.9 2.2c.2.5.2.6.5.6v.2zm-1.4-1.1l-.4-1-.5.9.9.1zM38.8 16.8c0-1-.5-.1-.8-.9-.2.7-.9.1-.9.9 0 .3.1.4.2.5v.3c0 .1.1.1.1.1h1c.1 0 .1-.1.1-.1v-.3c.2-.1.3-.3.3-.5zm-.8.2c-.3 0-.7.2-.7-.1 0-.5.3-.4.6-.4s.7-.1.7.4c0 .3-.4.1-.6.1zM47.2 28.7c.2 0 .4-.2.4-.4s-.2-.4-.4-.4-.4.2-.4.4.2.4.4.4zM45.1 14.3l-.2.4c0 .1.1.2.2.2s.2-.1.2-.2c0 .1-.2-.4-.2-.4zM30.9 14.3l-.2.4c0 .1.1.2.2.2s.2-.1.2-.2c.1.1-.2-.4-.2-.4zM34.5 14.3l-.2.4c0 .1.1.2.2.2s.2-.1.2-.2c0 .1-.2-.4-.2-.4zM38 14.3l-.2.4c0 .1.1.2.2.2s.2-.1.2-.2c0 .1-.2-.4-.2-.4zM41.6 14.3l-.2.4c0 .1.1.2.2.2s.2-.1.2-.2c0 .1-.2-.4-.2-.4zM30.9 19.2l.2.4c0 .1-.1.2-.2.2s-.2-.1-.2-.2l.2-.4zM30.9 24l.2.4c0 .1-.1.2-.2.2s-.2-.1-.2-.2l.2-.4zM31.5 27.7s.2.3.2.4c0 .1-.1.2-.2.2s-.2-.1-.2-.2l.2-.4zM34.5 29.7l.2.4c0 .1-.1.2-.2.2s-.2-.1-.2-.2l.2-.4zM45.3 19.2l-.2.4c0 .1.1.2.2.2s.2-.1.2-.2l-.2-.4zM45.3 24l-.2.4c0 .1.1.2.2.2s.2-.1.2-.2l-.2-.4zM44.7 27.7s-.2.3-.2.4c0 .1.1.2.2.2s.2-.1.2-.2c.1 0-.2-.4-.2-.4zM41.8 29.7l-.2.4c0 .1.1.2.2.2s.2-.1.2-.2l-.2-.4zM38.1 31.8s-.2.3-.2.4c0 .1.1.2.2.2s.2-.1.2-.2c.1 0-.2-.4-.2-.4zM43.9 24.7c0 .1.2.1.3 0l.1-.4s-.2-.2-.3-.2c-.4.1-.8.1-1 .5 0 .2.2.5.4.6.1 0 .2.1.2.2s0 .2-.2.2c-.3-.3-.7.1-.9-.2.1-.3.3-.7 0-1 0-.1.1-.1.1-.2-.1-.3-.4-.1-.6-.1-.3 0-.6.1-.8.4 0 .1.1.2.2.3.1 0 .1 0 .2.1l-.2.1c.1.1.1.2.1.2-.2.1-.3-.2-.4-.3 0-.2 0-.5-.2-.5l-.2.1c-.1.1-.1.2-.1.4s.1.4.1.4.7.5.8.8c-.2.4-.2 1-.7 1.2-.1.1-.1.2-.1.4l.1.1c.3-.2.9-.2.8-.7.1-.2.2-.4.4-.6.2 0 .4.1.5.2-.1.3-.3.6-.6.7v.2c.1.2.3.1.5.1.4-.2.5-.7.9-.8 0 .2-.4.3-.1.5.2 0 .5 0 .6-.2-.2-.4.5-.6.1-.9 0-.3.4-.5.3-.8-.1-.4-.6-.4-.7-.7.1-.1.3-.1.4-.1zM27.6 28.8c.2 0 .4-.2.4-.4s-.2-.4-.4-.4-.4.2-.4.4c0 .3.2.4.4.4zM4.6 42.3c.2 0 .4-.2.4-.4s-.2-.4-.4-.4-.4.2-.4.4.2.4.4.4zM19.2 45.5zm0 0zM19.3 45.5c-.1 0-.1 0 0 0-.1 0 0 0 0 0zM19.5 45.5c-.1 0-.1 0 0 0h-.1.1-.1.1c-.1 0-.1 0 0 0-.1 0-.1 0 0 0-.1 0-.1 0 0 0-.1 0-.1 0 0 0-.1 0-.1 0 0 0zM19.5 45.5zm0 0zM19.5 45.5s.1 0 0 0c.1 0 .1 0 0 0 .1 0 .1 0 0 0 .1 0 .1 0 0 0 .1 0 .1 0 0 0z"/><path d="M46.3 13.8H29.9v12.5c0 1.3.5 2.4 1.3 2.7l6.3 4c.1.2.3.3.6.3.2 0 .4-.1.5-.2L45 29c.7-.3 1.3-1.5 1.3-2.7V13.8zm-.5 12.7c-.1 1-.4 1.7-1.1 2.2l-6.2 3.9c-.1.1-.3.2-.5.2s-.4-.1-.5-.2l-6.2-3.9c-.7-.4-1-1.2-1.1-2.2V14.2h15.5v12.3h.1z"/><path d="M40.3 32l.2-.1c-.1.1-.1.1-.2.1zM28 49.1l-1.5.2v-.1c.3-.1.4-.1.4-.2s-.2-.4-.3-.5l-1.1.1c-.1.3-.2.5-.2.5 0 .2.2.1.4.1v.1l-1 .1v-.1c.3-.1.3-.2.4-.5l.8-2.3h.1l1.3 2c.3.4.4.5.6.5l.1.1zm-1.6-.7l-.6-.9-.3 1 .9-.1z"/><path d="M55.1 43.3c-.3-.7-.9-1.2-1.6-1.5-.8-.2-1.6 0-2 .5-.8.7-.3 1.8-.2 2.7 0 .2 0 .3-.2.4-3.4-.3-6.6-1.2-10-1.5-.8-.1-1.6-.1-2.3-.3l-.9-.1c-2.9.1-5.9.3-8.6 1-.6.2-1.2.2-1.8.4-.4-.1-.8.2-1.2.1l-.8.2h-.3c-.4-1 .8-1.6.4-2.5-.3-.5-.9-1.1-1.6-1-.8-.1-1.5.4-1.9 1-.5 1.2.1 2.4.4 3.6 0 .4.4.8 0 1.1-.8-.5-1.7-.8-2.7-.5-.3.1-.8 0-.9.3 1 .5 2.3.5 3.4.4.1 0 .2-.1.4 0 .1.6-.1 1.4.3 2 .4.6 1.1.7 1.8.8 2.2-.1 4.1-.7 6.1-1.2.3 0 .5-.2.9-.2 1.1-.2 2.2-.4 3.3-.5-.5.6-.8 1.4-1 2.1-.3.6.5.7.7 1.1-.7.2-1.2.7-1.9 1-1.5 0-2.8.5-4.2.7 0 .3.5.2.5.5-.1.2-.3.2-.4.4 0 .1 0 .2.1.2.1-.2.4 0 .6-.2.5 0 .9-.1 1.3-.2.4-.2.8-.2 1.2-.5.5-.1.8-.5 1.3-.6.7 0 1.3-.2 2-.3v.3c-.5.9-1.1 1.8-1.7 2.6-.1.2 0 .3.2.4.3.1.7 0 .9-.1.5-.9.9-1.7 1.3-2.5.2-.8.8-1.2 1.3-1.8.1 0 .2-.2.3 0-.5.5-.8 1.1-1.1 1.7-.2.7-.2 1.5.4 2.1.3.2.7.2 1.1.2.9-.5 2.1.3 2.8-.6.4-.1.5.4.7.7.4.1.8.5 1.2.2 0-.3-.3-.5-.4-.7-.3-.5-.6-.9-.9-1.3-.2-.7-.4-.9-.4-1.2.4.1.8.4 1.3.5.4.2.9.1 1.3.4.3.4.8.6 1.2.9.6.3 1.2.3 1.9.6.2 0 .6.2.8 0-.1-.1-.2-.2-.4-.3-.1-.3.4-.1.6-.4-.1-.1-.2-.2-.3-.2-.3-.2-1.2-.2-1.4-.4-.3 0-.5-.2-.8-.3-1.4 0-2.2-1.3-3.3-1.7.3-.2.7-.4.8-.8.2-.3.3-.9.1-1.3-.2-.7-1.2-.6-1.7-1l.1-.1c.9 0 1.7.2 2.5.3 2.3.3 4.3 1.2 6.7 1.2 1.3 0 2.9.1 3.5-1.2.1-.7.3-1.5.4-2.2.1-1 .9-2.1.8-3.4zM29.7 54.1l-.3-.3c.2-.2.5-.1.8-.2.6-.2 1.3-.4 2-.3-.7.5-1.7.6-2.5.8zm14.7-.4c.6.3 1.7.5 2.5.6-.1.3-.6 0-.6.5-.7-.3-1.6-.4-2.1-1 0-.1.1-.1.2-.1zM22.3 43.6c.1-.4.2-.9.6-1.2.6-.3 1.3-.2 1.9.1.2.1.3.2.4.5.1.4-.1.8-.4 1.1h-.2c0-.4 0-.8.1-1.1 0-.3-.3-.3-.4-.4-.4-.1-.8.1-1.1.2-.2.3-.4.6-.3 1 .2.3 0 .6.1.9l-.1.1c-.3-.3-.6-.6-.6-1.2zm1.1.7c.4.3.8.1 1.3.2.1.3.1.6-.1.8-.4-.1-.9 0-1.1-.4 0-.2-.1-.4-.1-.6zm0-.8c.1-.2 0-.5.3-.5.2 0 .4 0 .4.1 0 .3 0 .6-.1.8-.4.1-.5-.1-.6-.4zm11 7.6c-.1-.8.2-1.5.8-2.1.3-.1.7-.1 1 0-.6.2-1.4.3-1.5 1.1 0 .3-.1.5.1.7.3.4.8.3 1.2.6 0 .1-.1.3-.2.3-.5-.2-1-.3-1.4-.6zm-.9 1.6c.6-.2 1.2-.7 1.8-.5-.4.4-1.1.5-1.8.5zm2.3.3c-.3.8-.7 1.5-1.2 2.2 0 .1-.2.1-.4.2 0-.3.3-.6.5-.9.5-.6.6-1.3 1.2-1.9.2.1-.1.2-.1.4zm.6-1.4s-.1 0 0 0zm-.2-.6c-.4 0-.8-.2-1.1-.3-.2-.2 0-.5 0-.8.3-.5 1.3-.8 1.7-.3-.1.5-.3 1-.6 1.4zm.5 0c.1-.3.2-.7.4-1-.1.3-.2.7-.4 1zm.2-2c-.3-.1-.5-.4-.8-.4.3-.1.6-.1.9 0 .1.2 0 .3-.1.4zm.3.8v-.3.3zm0 1c0-.1 0-.2.1-.3.1-.1.2.1.3.2-.1.1-.2.2-.4.1zm.4-1.4c.1-.3.1-.6.4-.9.2 0 .4 0 .6.1 0 .5.6 1.1 0 1.5-.2.1-.5.3-.8.1-.3-.3-.3-.5-.2-.8zm1.7-.7c0-.2.2 0 .3-.1h.7c-.3 0-.8.8-1 .1zm1.2.3c-.3.1-.5.4-.8.5.1-.2.5-.5.8-.5zm-1 1.5zm0 1.4s0 .1-.1.2l-.4-.4c.2-.1.4 0 .5.2zm-.6-.7h.2-.2zm-.3-.4c.1-.1.2-.4.4-.4v.1c-.1.2-.3.3-.4.3zm-.6 0v-.1c.2 0 .1.1 0 .1zm.1.9c.3-.3.6.2.7.5.4.5 1.3 1 .9 1.7-.4.4-1.2 0-1.6.3-.3 0-.7 0-.8-.2.2-.8.4-1.6.8-2.3zm-.7.4l.1-.2c-.2.6-.5 1.2-.8 1.7-.1-.5.5-1 .7-1.5zm1.1 2.9c-.4 0-1.1.3-1.6-.1 0-.2-.2-.3-.2-.5.4-.1.7.3 1.1 0 .5 0 1.1-.1 1.6 0 .3.1.7-.4.7.1-.1.8-1.1.2-1.6.5zm1.3-3.4zM40 53c0 .2.3.3.1.5 0 0-.2-.2-.1-.5zm.6 1.5h-.1c-.1-.1-.1-.4 0-.5.1.1.2.3.1.5zm1.2.5c0 .1-.1.1-.2 0-.7-.9-1-1.8-1.5-2.8h.1c.6.9 1.1 1.9 1.6 2.8zm.9-2.1c-.1 0-.1 0 0 0-.7.1-1.2-.3-1.7-.7v-.1c.6 0 1.1.5 1.7.8zm-.6-3.2c.3.1.3.4.3.6 0 .5-.3 1-.8 1.2-.3.1-.7.2-.9.1.6 0 1.2-.2 1.4-.8v-1.1zm-.5-.1c.1.3.3.6.2 1-.2.5-.7.5-1.1.5-.2 0-.4 0-.5-.2 0-.1 0-.2-.1-.2.1-.3-.5-.6-.1-.9.3-.2 1.2-1 1.6-.2zm11.9-1.7c-.2.2 0 .6-.3.8 0 .4-.4.6-.7.8-2.8.6-5.5-.3-8.2-.8-3.8-.8-8.2-1.1-12.1-.2-1.8.3-3.6.8-5.3 1.3-1.1.1-2.3.3-3.3 0-.8-.4-.5-1.5-.8-2.2 0-.6-.2-1.1-.2-1.6-.1-.2-.1-.4-.1-.6.4 0 .7.3 1.1.4 2 .4 3.7-.3 5.6-.6 1.8-.4 3.6-.7 5.4-.8 2.1 0 4.3-.1 6.3.2.7 0 1.2.2 1.9.2 1.3.2 2.5.5 3.9.6.2.1.5.1.7.1 2.1.3 4.5.9 6.5 0 .1.8-.3 1.6-.4 2.4zm-.7-2.9c0 .4-.3.3-.5.4h-.6c-.1-.2-.1-.5-.1-.7.5.1.9.1 1.2.3zm-.2-.6c.3-.3-.1-1.8.7-.8 0 .2 0 .5-.2.6-.1.1-.3.3-.5.2zm1.9-.2c-.2.4-.5.7-1 .8 0-.6.5-1 .4-1.6-.3-.5-.9-.6-1.5-.5-.2.1-.1.4-.2.6l-.1.8c-.5 0-.5-.4-.6-.8 0-.5.2-1 .7-1.2.4-.2 1-.2 1.4 0 .3.1.7.2.8.5.3.4.2.9.1 1.4zM83.4 34.7h147.5v.7H83.4z"/><path class="st0" d="M83.4 51.4v-.3h.3c.3 0 .5 0 .6-.1.1-.1.3-.2.3-.4 0-.1.1-.4.1-.9v-6.2c0-.5 0-.8-.1-.9l-.3-.3c-.2-.1-.4-.1-.6-.1h-.3V42h4.2c1.1 0 2 .2 2.7.5.8.4 1.5.9 1.9 1.7.4.8.7 1.6.7 2.6 0 .7-.1 1.3-.3 1.8-.2.6-.5 1-.8 1.4-.3.4-.7.7-1.2.9-.4.2-1 .4-1.6.5-.3.1-.7.1-1.3.1h-4.3v-.1zm3.6-8.9v7.3c0 .4 0 .6.1.7 0 .1.1.2.2.2.1.1.3.1.5.1.8 0 1.4-.3 1.8-.8.6-.7.8-1.8.8-3.3 0-1.2-.2-2.2-.6-2.9-.3-.6-.7-.9-1.2-1.2-.3 0-.8-.1-1.6-.1zM99.3 47.9h-3.6c0 .9.3 1.5.7 2 .3.4.7.6 1.2.6.3 0 .5-.1.8-.2.2-.2.5-.4.7-.8l.2.2c-.4.7-.7 1.2-1.2 1.5-.4.3-.9.4-1.5.4-1 0-1.7-.4-2.2-1.1-.4-.6-.6-1.3-.6-2.2 0-1.1.3-1.9.9-2.6.6-.6 1.3-1 2.1-1 .7 0 1.2.3 1.7.8.5.6.7 1.4.8 2.4zm-1.7-.4c0-.7 0-1.3-.1-1.5-.1-.3-.2-.5-.4-.6-.1-.1-.2-.1-.4-.1s-.4.1-.6.4c-.3.4-.4 1-.4 1.7v.2h1.9v-.1zM102.3 50.7v2.4c0 .3 0 .6.1.7.1.1.1.2.3.3.1.1.3.1.7.1v.3h-3.7v-.3c.3 0 .5-.1.6-.2.1-.1.1-.4.1-.8v-6.9c0-.5-.1-.8-.2-.9-.1-.1-.3-.2-.6-.2v-.3h2.7v.9c.2-.3.5-.6.7-.7.3-.2.7-.3 1.1-.3.5 0 .9.2 1.3.5s.7.7.9 1.2c.2.5.3 1.1.3 1.7 0 .7-.1 1.3-.3 1.8-.2.5-.5 1-.9 1.2-.4.3-.8.4-1.3.4-.4 0-.7-.1-1-.2-.3-.2-.5-.4-.8-.7zm0-.7c.4.6.8.8 1.3.8.2 0 .5-.1.6-.4.2-.4.4-1.1.4-2.2s-.1-1.9-.4-2.3c-.2-.3-.4-.4-.7-.4-.5 0-.9.3-1.2 1V50zM111 50.5c-.8.7-1.5 1-2.1 1-.4 0-.7-.1-.9-.4-.2-.2-.4-.6-.4-.9 0-.5.2-.9.6-1.3.4-.4 1.4-.9 2.8-1.6v-.7c0-.5 0-.8-.1-.9l-.3-.3c-.1-.1-.3-.1-.5-.1-.3 0-.5.1-.7.2-.1.1-.2.2-.2.3 0 .1.1.2.2.4.2.2.3.4.3.6 0 .2-.1.4-.3.6-.2.2-.4.2-.7.2-.3 0-.5-.1-.7-.3-.2-.2-.3-.4-.3-.6 0-.3.1-.7.4-1 .3-.3.6-.5 1.1-.7.5-.2 1-.2 1.5-.2.6 0 1.1.1 1.5.4.4.3.6.5.7.8.1.2.1.6.1 1.3v3.1c0 .1.1.1.1.2 0 0 .1.1.2.1s.2-.1.4-.3l.2.2c-.2.3-.5.6-.7.8-.2.2-.5.2-.8.2-.4 0-.7-.1-.9-.3-.3-.2-.4-.5-.5-.8zm0-.6v-2.2c-.6.3-1 .7-1.2 1.1-.2.2-.3.5-.3.8 0 .2.1.4.2.6.1.1.3.2.5.2.2-.1.5-.2.8-.5z"/><path d="M116.8 44.9v1.5c.4-.7.8-1.1 1.1-1.3.3-.2.6-.3.9-.3.3 0 .5.1.6.2.2.2.2.4.2.7 0 .3-.1.6-.2.7-.1.2-.3.3-.5.3s-.5-.1-.6-.2c-.2-.2-.3-.2-.3-.3h-.2c-.1 0-.3.1-.4.2-.2.2-.3.4-.4.7-.2.4-.2.9-.2 1.5V51c.1.1.1.2.2.3.1.1.3.1.6.1v.3h-3.5v-.3c.3 0 .5-.1.6-.2.1-.1.2-.5.2-1v-3.6c0-.4 0-.6-.1-.7 0-.1-.1-.2-.2-.3-.1-.1-.2-.1-.5-.1v-.3h2.7v-.3zM123 42.5v2.4h1.5v.7H123v4.7c0 .1.1.2.2.3.1.1.2.1.2.1.3 0 .6-.2.9-.7l.2.2c-.4.9-1 1.3-1.8 1.3-.4 0-.8-.1-1-.3-.3-.2-.5-.5-.5-.8 0-.2-.1-.6-.1-1.3v-3.5h-.8v-.2c.6-.4 1.1-.8 1.5-1.3.4-.5.8-1 1.1-1.5h.1v-.1zM127.9 44.9v.9c.4-.4.7-.7 1-.8.3-.2.6-.2 1-.2s.8.1 1.1.3c.3.2.5.5.6.9.4-.4.7-.7 1.1-.9.3-.2.7-.3 1.1-.3.4 0 .8.1 1.1.3.3.2.5.5.6.8.1.3.2.8.2 1.5V50c0 .5 0 .8.1.9.1.1.3.2.6.2v.3H133v-.3c.3 0 .5-.1.6-.3.1-.1.1-.4.1-.9v-2.8c0-.6 0-.9-.1-1.1 0-.2-.1-.3-.2-.3-.1-.1-.2-.1-.3-.1-.2 0-.4.1-.6.2-.2.1-.4.4-.6.7V50c0 .5 0 .8.1.9.1.2.3.3.6.3v.3H129v-.3c.2 0 .3-.1.4-.1.1-.1.2-.2.2-.3 0-.1.1-.4.1-.7v-2.8c0-.6 0-1-.1-1.1 0-.1-.1-.3-.2-.3-.1-.1-.2-.1-.3-.1-.2 0-.4.1-.5.1-.2.1-.4.4-.7.7V50c0 .5 0 .8.1.9.1.1.3.2.6.3v.3h-3.3v-.3c.3 0 .5-.1.6-.3.1-.1.1-.4.1-.9v-3.7c0-.5 0-.8-.1-.9-.1-.1-.3-.2-.6-.2v-.3h2.6z"/><path class="st0" d="M142.1 47.9h-3.6c0 .9.3 1.5.7 2 .3.4.7.6 1.2.6.3 0 .5-.1.8-.2.2-.2.5-.4.7-.8l.2.2c-.4.7-.7 1.2-1.2 1.5-.4.3-.9.4-1.5.4-1 0-1.7-.4-2.2-1.1-.4-.6-.6-1.3-.6-2.2 0-1.1.3-1.9.9-2.6.6-.6 1.3-1 2.1-1 .7 0 1.2.3 1.7.8.5.6.7 1.4.8 2.4zm-1.7-.4c0-.7 0-1.3-.1-1.5-.1-.3-.2-.5-.4-.6-.1-.1-.2-.1-.4-.1s-.4.1-.6.4c-.3.4-.4 1-.4 1.7v.2h1.9v-.1z"/><path d="M145.4 44.9v.8c.3-.4.7-.6 1-.8.3-.2.6-.2 1-.2s.8.1 1 .4c.3.2.5.5.6.9.1.3.1.8.1 1.5V50c0 .5 0 .8.1.9.1.1.3.2.6.2v.3h-3.3v-.3c.2 0 .4-.1.5-.3.1-.1.1-.4.1-.9V47c0-.5 0-.9-.1-1 0-.1-.1-.2-.2-.3-.1-.1-.2-.1-.3-.1-.4 0-.8.3-1.1.9V50c0 .5 0 .8.1.9.1.1.3.2.5.2v.3h-3.3v-.3c.3 0 .5-.1.6-.3.1-.1.1-.4.1-.9v-3.7c0-.5 0-.8-.1-.9-.1-.1-.3-.2-.6-.2v-.3h2.7v.1zM152.7 42.5v2.4h1.5v.7h-1.5v4.7c0 .1.1.2.2.3.1.1.2.1.2.1.3 0 .6-.2.9-.7l.2.2c-.4.9-1 1.3-1.8 1.3-.4 0-.8-.1-1-.3-.3-.2-.5-.5-.5-.8 0-.2-.1-.6-.1-1.3v-3.5h-.8v-.2c.6-.4 1.1-.8 1.5-1.3.4-.5.8-1 1.1-1.5h.1v-.1z"/><path class="st0" d="M161.1 44.7c.6 0 1.1.1 1.6.4.5.3.9.7 1.1 1.2.3.5.4 1.1.4 1.8 0 .9-.2 1.7-.7 2.3-.6.8-1.3 1.1-2.3 1.1-1 0-1.7-.3-2.3-1-.5-.7-.8-1.5-.8-2.4 0-.9.3-1.7.8-2.4.5-.6 1.3-1 2.2-1zm0 .5c-.2 0-.4.1-.6.3-.2.2-.3.5-.3 1.1 0 .5-.1 1.3-.1 2.2 0 .5 0 1 .1 1.4.1.3.2.6.3.7.2.2.4.3.6.3.2 0 .4-.1.5-.2.2-.2.3-.4.4-.7.1-.4.1-1.3.1-2.7 0-.8 0-1.3-.1-1.6-.1-.3-.2-.5-.4-.6-.1-.1-.3-.2-.5-.2z"/><path d="M167.6 45.6v4.5c0 .4 0 .7.1.8.2.2.4.2.8.2v.3h-3.8v-.3c.3 0 .5 0 .6-.1l.3-.3c0-.1.1-.3.1-.7v-4.5h-.9v-.7h.9V44c0-.7.2-1.2.7-1.7.5-.4 1.2-.7 2-.7.6 0 1 .1 1.3.3.3.2.4.5.4.7 0 .2-.1.4-.3.5-.2.2-.4.2-.7.2-.2 0-.4-.1-.6-.2-.1-.1-.2-.3-.2-.4v-.3-.2c0-.1 0-.2-.1-.2-.1-.1-.2-.1-.3-.1-.1 0-.2.1-.3.2-.1.1-.1.3-.1.5v2h1v.7h-.9v.3zM176.1 46.9v2.9c0 .5 0 .8.1.9l.3.3c.2.1.4.1.6.1h.3v.3h-4.9v-.3h.3c.3 0 .5 0 .7-.1l.3-.3c.1-.1.1-.4.1-.9v-6.2c0-.5 0-.8-.1-.9 0-.1-.2-.2-.3-.3-.2-.1-.4-.1-.6-.1h-.3V42h4.9v.3h-.3c-.3 0-.5 0-.7.1l-.3.3c-.1.1-.1.4-.1.9v2.7h3.3v-2.7c0-.5 0-.8-.1-.9l-.3-.3c-.2-.1-.4-.1-.6-.1h-.3V42h4.9v.3h-.3c-.3 0-.5 0-.7.1l-.3.3c0 .1-.1.4-.1.9v6.2c0 .5 0 .8.1.9l.3.3c.2.1.4.1.6.1h.3v.3H178v-.3h.3c.3 0 .5 0 .7-.1l.3-.3c.1-.1.1-.4.1-.9v-2.9h-3.3z"/><path class="st0" d="M188.5 47.9h-3.6c0 .9.3 1.5.7 2 .3.4.7.6 1.2.6.3 0 .5-.1.8-.2.2-.2.5-.4.7-.8l.2.2c-.4.7-.7 1.2-1.2 1.5-.4.3-.9.4-1.5.4-1 0-1.7-.4-2.2-1.1-.4-.6-.6-1.3-.6-2.2 0-1.1.3-1.9.9-2.6.6-.6 1.3-1 2.1-1 .7 0 1.2.3 1.7.8.5.6.8 1.4.8 2.4zm-1.7-.4c0-.7 0-1.3-.1-1.5-.1-.3-.2-.5-.4-.6-.1-.1-.2-.1-.4-.1s-.4.1-.6.4c-.3.4-.4 1-.4 1.7v.2h1.9v-.1zM192.5 50.5c-.8.7-1.5 1-2.1 1-.4 0-.7-.1-.9-.4-.2-.2-.4-.6-.4-.9 0-.5.2-.9.6-1.3.4-.4 1.4-.9 2.8-1.6v-.7c0-.5 0-.8-.1-.9 0-.1-.1-.2-.3-.3-.2-.1-.3-.1-.5-.1-.3 0-.5.1-.7.2-.1.1-.2.2-.2.3 0 .1.1.2.2.4.2.2.3.4.3.6 0 .2-.1.4-.3.6-.2.2-.4.2-.7.2-.3 0-.5-.1-.7-.3-.2-.2-.3-.4-.3-.6 0-.3.1-.7.4-1 .3-.3.6-.5 1.1-.7.5-.2 1-.2 1.5-.2.6 0 1.1.1 1.5.4.4.3.6.5.7.8.1.2.1.6.1 1.3v3.1c0 .1.1.1.1.2 0 0 .1.1.2.1s.2-.1.4-.3l.2.2c-.2.3-.5.6-.7.8-.2.2-.5.2-.8.2-.4 0-.7-.1-.9-.3-.4-.2-.5-.5-.5-.8zm0-.6v-2.2c-.6.3-1 .7-1.3 1.1-.2.2-.3.5-.3.8 0 .2.1.4.2.6.1.1.3.2.5.2.3-.1.6-.2.9-.5z"/><path d="M198.2 42v8.1c0 .5.1.8.2.9.1.1.3.2.6.2v.3h-3.5v-.3c.3 0 .5-.1.6-.2.1-.1.1-.4.1-.8v-6.7c0-.5-.1-.7-.2-.9-.1-.1-.3-.2-.6-.2V42h2.8zM201.8 42.5v2.4h1.5v.7h-1.5v4.7c0 .1.1.2.2.3.1.1.2.1.2.1.3 0 .6-.2.9-.7l.2.2c-.4.9-1 1.3-1.8 1.3-.4 0-.8-.1-1-.3-.3-.2-.5-.5-.5-.8 0-.2-.1-.6-.1-1.3v-3.5h-.9v-.2c.6-.4 1.1-.8 1.5-1.3.4-.5.8-1 1.1-1.5h.2v-.1zM206.3 42v3.8c.4-.4.7-.6 1-.8.3-.2.6-.2.9-.2.4 0 .8.1 1 .3.3.2.5.5.6.8.1.3.1.8.1 1.6V50c0 .5 0 .8.1.9.1.1.3.2.6.2v.3h-3.3v-.3c.2 0 .4-.1.5-.3.1-.1.1-.4.1-.9V47c0-.5 0-.9-.1-1 0-.1-.1-.2-.2-.3-.1-.1-.2-.1-.3-.1-.2 0-.4.1-.5.2-.2.1-.4.3-.6.7V50c0 .5 0 .8.1.9.1.2.3.3.5.3v.3h-3.3v-.3c.3 0 .5-.1.6-.3.1-.1.1-.4.1-.9v-6.6c0-.5 0-.8-.1-.9-.1-.1-.3-.2-.6-.2V42h2.8z"/></svg>